<svg width="15" height="15" viewBox="0 0 15 15" fill="none" xmlns="http://www.w3.org/2000/svg">
<path d="M7.5 13.75C7.35417 13.75 7.22917 13.7083 7.125 13.625C7.02083 13.5417 6.94271 13.4323 6.89063 13.2969C6.69271 12.7135 6.44271 12.1667 6.14062 11.6562C5.84896 11.1458 5.4375 10.5469 4.90625 9.85938C4.375 9.17188 3.94271 8.51562 3.60938 7.89062C3.28646 7.26562 3.125 6.51042 3.125 5.625C3.125 4.40625 3.54687 3.375 4.39062 2.53125C5.24479 1.67708 6.28125 1.25 7.5 1.25C8.71875 1.25 9.75 1.67708 10.5938 2.53125C11.4479 3.375 11.875 4.40625 11.875 5.625C11.875 6.57292 11.6927 7.36458 11.3281 8C10.974 8.625 10.5625 9.24479 10.0938 9.85938C9.53125 10.6094 9.10417 11.2344 8.8125 11.7344C8.53125 12.224 8.29688 12.7448 8.10938 13.2969C8.05729 13.4427 7.97396 13.5573 7.85938 13.6406C7.75521 13.7135 7.63542 13.75 7.5 13.75ZM7.5 7.1875C7.9375 7.1875 8.30729 7.03646 8.60938 6.73438C8.91146 6.43229 9.0625 6.0625 9.0625 5.625C9.0625 5.1875 8.91146 4.81771 8.60938 4.51562C8.30729 4.21354 7.9375 4.0625 7.5 4.0625C7.0625 4.0625 6.69271 4.21354 6.39063 4.51562C6.08854 4.81771 5.9375 5.1875 5.9375 5.625C5.9375 6.0625 6.08854 6.43229 6.39063 6.73438C6.69271 7.03646 7.0625 7.1875 7.5 7.1875Z" fill="#505E2C"/>
</svg>
