<svg width="11" height="11" viewBox="0 0 11 11" fill="none" xmlns="http://www.w3.org/2000/svg">
<g clip-path="url(#clip0_819_1898)">
<path d="M8.79559 4.41829C8.79559 7.27777 5.0663 9.72875 5.0663 9.72875C5.0663 9.72875 1.33701 7.27777 1.33701 4.41829C1.33701 3.44323 1.72992 2.50811 2.4293 1.81863C3.12867 1.12916 4.07723 0.741821 5.0663 0.741821C6.05537 0.741821 7.00393 1.12916 7.7033 1.81863C8.40268 2.50811 8.79559 3.44323 8.79559 4.41829Z" stroke="black" stroke-width="0.833333" stroke-linecap="round" stroke-linejoin="round"/>
<path d="M5.0663 5.64385C5.75284 5.64385 6.30939 5.09518 6.30939 4.41836C6.30939 3.74154 5.75284 3.19287 5.0663 3.19287C4.37976 3.19287 3.8232 3.74154 3.8232 4.41836C3.8232 5.09518 4.37976 5.64385 5.0663 5.64385Z" stroke="black" stroke-width="0.833333" stroke-linecap="round" stroke-linejoin="round"/>
</g>
<defs>
<clipPath id="clip0_819_1898">
<rect width="9.94476" height="9.80392" fill="white" transform="translate(0.0939178 0.333374)"/>
</clipPath>
</defs>
</svg>
