<svg width="291" height="294" viewBox="0 0 291 294" fill="none" xmlns="http://www.w3.org/2000/svg">
<g filter="url(#filter0_f_716_2806)">
<path d="M166.936 161.403C163.823 162.238 160.873 163.366 158.081 164.726L157.305 161.83C160.406 161.622 163.522 161.115 166.635 160.28C192.514 153.346 207.874 126.741 200.94 100.862C194.006 74.9829 167.401 59.6223 141.522 66.5566C115.643 73.4908 100.282 100.096 107.216 125.975C108.058 129.118 109.197 132.107 110.585 134.923L107.847 135.657C107.641 132.524 107.135 129.376 106.29 126.223C99.3462 100.347 72.7409 84.9863 46.8619 91.9206C20.983 98.8548 5.62237 125.46 12.5566 151.339C19.4909 177.218 46.0962 192.579 71.9752 185.644C75.0881 184.81 78.0378 183.682 80.8302 182.321L81.6063 185.218C78.505 185.426 75.389 185.933 72.2761 186.767C46.3971 193.702 31.0339 220.297 37.9708 246.186C44.9077 272.075 71.5103 287.426 97.3893 280.491C123.268 273.557 138.629 246.952 131.695 221.073C130.853 217.93 129.714 214.941 128.326 212.124L131.064 211.391C131.27 214.524 131.776 217.672 132.621 220.825C139.555 246.704 166.16 262.064 192.039 255.13C217.918 248.196 233.279 221.59 226.345 195.711C219.41 169.832 192.805 154.472 166.926 161.406L166.936 161.403Z" fill="#9747FF"/>
</g>
<g opacity="0.88" clip-path="url(#clip0_716_2806)" filter="url(#filter1_f_716_2806)">
<path d="M269.641 86.6406H243.663C238.216 86.6406 235.49 80.0575 239.341 76.2066L257.471 58.077C263.938 51.61 264.579 41.1577 258.595 34.2384C251.927 26.5245 240.246 26.2066 233.167 33.291L214.8 51.6589C210.949 55.5098 204.366 52.7836 204.366 47.3374V21.3594C204.366 11.7751 196.597 4 187.006 4C177.422 4 169.647 11.7689 169.647 21.3594V47.3374C169.647 52.7836 163.064 55.5098 159.213 51.6589L140.845 33.291C134.066 26.5122 123.076 26.5122 116.297 33.291C109.518 40.0697 109.518 51.0599 116.297 57.8386L134.665 76.2066C138.516 80.0575 135.79 86.6406 130.344 86.6406H104.359C94.7751 86.6406 87 94.4095 87 104C87 113.584 94.7689 121.359 104.359 121.359H130.337C135.784 121.359 138.51 127.943 134.659 131.793L116.291 150.161C109.512 156.94 109.512 167.93 116.291 174.709C123.07 181.488 134.06 181.488 140.839 174.709L159.207 156.341C163.057 152.49 169.641 155.216 169.641 160.663V186.641C169.641 196.225 177.41 204 187 204C196.584 204 204.359 196.231 204.359 186.641V160.663C204.359 155.216 210.943 152.49 214.793 156.341L233.161 174.709C239.94 181.488 250.93 181.488 257.709 174.709C264.488 167.93 264.488 156.94 257.709 150.161L239.341 131.793C235.49 127.943 238.216 121.359 243.663 121.359H269.641C279.225 121.359 287 113.59 287 104C287 94.4156 279.231 86.6406 269.641 86.6406Z" fill="#231F20"/>
</g>
<defs>
<filter id="filter0_f_716_2806" x="6.89178" y="60.8917" width="225.118" height="225.265" filterUnits="userSpaceOnUse" color-interpolation-filters="sRGB">
<feFlood flood-opacity="0" result="BackgroundImageFix"/>
<feBlend mode="normal" in="SourceGraphic" in2="BackgroundImageFix" result="shape"/>
<feGaussianBlur stdDeviation="2" result="effect1_foregroundBlur_716_2806"/>
</filter>
<filter id="filter1_f_716_2806" x="83" y="0" width="208" height="208" filterUnits="userSpaceOnUse" color-interpolation-filters="sRGB">
<feFlood flood-opacity="0" result="BackgroundImageFix"/>
<feBlend mode="normal" in="SourceGraphic" in2="BackgroundImageFix" result="shape"/>
<feGaussianBlur stdDeviation="2" result="effect1_foregroundBlur_716_2806"/>
</filter>
<clipPath id="clip0_716_2806">
<rect width="200" height="200" fill="white" transform="translate(87 4)"/>
</clipPath>
</defs>
</svg>
