<svg width="331" height="366" viewBox="0 0 331 366" fill="none" xmlns="http://www.w3.org/2000/svg">
<path d="M252.44 126C249.3 135.49 245.17 144.78 238.95 152.69C232.39 161.04 224.01 167.87 215.36 173.94C207.03 179.78 198.52 185.88 188.92 189.45C180.11 192.73 170.85 194.51 161.67 196.43C141.61 200.63 121.23 206.84 104.45 219C95.34 225.6 87.75 233.62 82.47 243.61C77.28 253.43 73.86 264.14 70.33 274.63C63.24 295.72 53.96 316.36 39.32 333.35C31.29 342.67 22.22 350.92 12.08 357.88C7.77002 360.84 4.34 363.08 0 366H337V0C320.65 5.02 307.93 14.82 295.39 26.09C281 39.02 271.86 55.67 266.11 73.98C260.75 91.1 258.08 108.95 252.44 126Z" fill="url(#paint0_linear_236_2788)"/>
<defs>
<linearGradient id="paint0_linear_236_2788" x1="405" y1="634" x2="145.5" y2="164.5" gradientUnits="userSpaceOnUse">
<stop stop-color="#FCEE21"/>
<stop offset="1" stop-color="#498878"/>
</linearGradient>
</defs>
</svg>
