<svg width="113" height="46" viewBox="0 0 113 46" fill="none" xmlns="http://www.w3.org/2000/svg">
<g filter="url(#filter0_f_239_2899)">
<path d="M98.3803 10.0637L97.016 7.07932C95.5374 3.843 90.5326 2.95079 87.5854 5.40023L79.5539 12.0753L79.534 12.0691L77.2528 7.07932C75.7742 3.843 70.7694 2.95079 67.8222 5.40023L59.7907 12.0753L59.7709 12.0691L57.4896 7.07932C56.0111 3.843 51.0063 2.95079 48.0591 5.40023L40.0275 12.0753L40.0077 12.0691L37.7264 7.07932C36.2479 3.843 31.2431 2.95079 28.2959 5.40023L5.68489 24.1986C2.61095 26.7534 3.93545 31.1111 8.09782 32.1459L11.1022 32.8935C12.9535 33.3541 14.4023 34.5581 14.9564 36.0968L15.856 38.5937C17.1035 42.0552 22.3443 43.1539 25.4183 40.5991L33.8101 33.6246L33.83 33.6287L35.6167 38.5917C36.8642 42.0531 42.105 43.1518 45.179 40.5971L53.5683 33.6225L53.5882 33.6267L55.3749 38.5896C56.6224 42.051 61.8632 43.1498 64.9372 40.595L73.329 33.6205L73.3489 33.6246L75.1356 38.5875C76.3831 42.049 81.6239 43.1477 84.6979 40.5929L107.316 21.7946C110.261 19.3472 109.19 15.1877 105.296 13.9568L101.705 12.8229C100.172 12.3376 98.9593 11.3318 98.3753 10.0554L98.3803 10.0637Z" fill="url(#paint0_linear_239_2899)"/>
</g>
<defs>
<filter id="filter0_f_239_2899" x="0" y="0" width="113" height="46" filterUnits="userSpaceOnUse" color-interpolation-filters="sRGB">
<feFlood flood-opacity="0" result="BackgroundImageFix"/>
<feBlend mode="normal" in="SourceGraphic" in2="BackgroundImageFix" result="shape"/>
<feGaussianBlur stdDeviation="2" result="effect1_foregroundBlur_239_2899"/>
</filter>
<linearGradient id="paint0_linear_239_2899" x1="56.5" y1="4" x2="56.5" y2="42" gradientUnits="userSpaceOnUse">
<stop stop-color="#7922EB"/>
<stop offset="1" stop-color="#EF8D6B"/>
</linearGradient>
</defs>
</svg>
