<svg width="68" height="68" viewBox="0 0 68 68" fill="none" xmlns="http://www.w3.org/2000/svg">
<path d="M62.7393 35.4768L49.28 31.8704L61.3469 24.9036C64.1869 23.2639 65.16 19.6324 63.5203 16.7924C61.8806 13.9524 58.2492 12.9794 55.4091 14.6191L43.3423 21.5859L46.9487 8.12657C47.7973 4.95968 45.9186 1.70278 42.7497 0.853669C39.5828 0.00510229 36.3259 1.88377 35.4768 5.05268L31.8704 18.512L24.9036 6.44511C23.2639 3.60509 19.6324 2.63206 16.7924 4.27174C13.9524 5.91143 12.9794 9.54285 14.6191 12.3829L21.5859 24.4497L8.12657 20.8433C4.95967 19.9948 1.70278 21.8734 0.853667 25.0423C0.00455956 28.2113 1.88377 31.4661 5.05268 32.3152L18.512 35.9217L6.44511 42.8885C3.60509 44.5281 2.63205 48.1596 4.27174 50.9996C5.91142 53.8396 9.54285 54.8126 12.3829 53.173L24.4497 46.2061L20.8433 59.6654C19.9948 62.8323 21.8734 66.0892 25.0423 66.9384C28.2092 67.7869 31.4661 65.9083 32.3152 62.7393L35.9216 49.28L42.8885 61.3469C44.5281 64.1869 48.1596 65.16 50.9996 63.5203C53.8396 61.8806 54.8126 58.2492 53.173 55.4092L46.2061 43.3423L59.6654 46.9487C62.8323 47.7973 66.0892 45.9186 66.9384 42.7497C67.7869 39.5828 65.9083 36.3259 62.7393 35.4768Z" fill="#6F00FF"/>
</svg>
